inDegrees=no
num_controls=7
num_derivatives=13
num_iterations=109
num_multipliers=7
num_parameters=0
num_slacks=7
num_states=26
objective=0.453005
objective_accelerations=0.048277
objective_balance=0.001032
objective_effort=0.037494
objective_height=0.360559
objective_ligament=0.005643
solver_duration=1236.753453
status=Solve_Succeeded
success=true
DataType=double
version=3
OpenSimVersion=4.5
endheader
time	/jointset/ground_pelvis/pelvis_tilt/value	/jointset/ground_pelvis/pelvis_tx/value	/jointset/ground_pelvis/pelvis_ty/value	/jointset/hip_r/hip_flexion_r/value	/jointset/hip_r/hip_adduction_r/value	/jointset/hip_r/hip_rotation_r/value	/jointset/back/lumbar_extension/value	/jointset/patellofemoral_r/patellar_flexion_r/value	/jointset/knee_r/knee_flexion_r/value	/jointset/knee_r/knee_adduction_r/value	/jointset/knee_r/knee_rotation_r/value	/jointset/ankle_r/ankle_angle_r/value	/jointset/subtalar_r/subtalar_angle_r/value	/jointset/ground_pelvis/pelvis_tilt/speed	/jointset/ground_pelvis/pelvis_tx/speed	/jointset/ground_pelvis/pelvis_ty/speed	/jointset/hip_r/hip_flexion_r/speed	/jointset/hip_r/hip_adduction_r/speed	/jointset/hip_r/hip_rotation_r/speed	/jointset/back/lumbar_extension/speed	/jointset/patellofemoral_r/patellar_flexion_r/speed	/jointset/knee_r/knee_flexion_r/speed	/jointset/knee_r/knee_adduction_r/speed	/jointset/knee_r/knee_rotation_r/speed	/jointset/ankle_r/ankle_angle_r/speed	/jointset/subtalar_r/subtalar_angle_r/speed	/forceset/tau_hip_flexion_r	/forceset/tau_hip_adduction_r	/forceset/tau_hip_rotation_r	/forceset/tau_knee_flexion_r	/forceset/tau_ankle_angle_r	/forceset/tau_subtalar_angle_r	/forceset/tau_lumbar_extension	lambda_cid13_p0	lambda_cid14_p0	lambda_cid14_p1	lambda_cid14_p2	lambda_cid14_p3	lambda_cid14_p4	lambda_cid14_p5	/jointset/ground_pelvis/pelvis_tilt/accel	/jointset/ground_pelvis/pelvis_tx/accel	/jointset/ground_pelvis/pelvis_ty/accel	/jointset/hip_r/hip_flexion_r/accel	/jointset/hip_r/hip_adduction_r/accel	/jointset/hip_r/hip_rotation_r/accel	/jointset/back/lumbar_extension/accel	/jointset/patellofemoral_r/patellar_flexion_r/accel	/jointset/knee_r/knee_flexion_r/accel	/jointset/knee_r/knee_adduction_r/accel	/jointset/knee_r/knee_rotation_r/accel	/jointset/ankle_r/ankle_angle_r/accel	/jointset/subtalar_r/subtalar_angle_r/accel	gamma_cid13_p0	gamma_cid14_p0	gamma_cid14_p1	gamma_cid14_p2	gamma_cid14_p3	gamma_cid14_p4	gamma_cid14_p5
0	0.0004288733038869923	0.1277075688409401	0.9343920485188438	0.1934211968871041	-0.215691450776146	-0.2378336022644527	-0.2903787966825928	0.2311786273363289	0.2311786273363406	0.1057810895527312	0.162055126388058	0.089344008118978	0.0793095147663998	0	0	0	0	0	0	0	0	0	0	0	0	0	0.1120618487430849	-0.0397237554240728	0.0007353107753159643	-0.2502316168658366	0.1381179536370298	-0.08066533386556224	-0.03020585972896399	-29.51545776704401	-1.784796455578149	-31.75421484109621	1.382358801509464	-2.089477011575575	-609.7715724323465	40.41430303600288	-1.854975814780726	-1.750393251217344	-0.8622556137489762	9.82720654114744	0.07595556265846941	1.870257375306417	-6.153133318910117	10.19536094655685	10.19536094655695	-2.842130390209578	0.537025457180325	2.921235032016424	0.9565536468692434	3.649549650422694e-08	1.665867305261532e-08	-2.789536388888917e-07	2.351424978185125e-07	1.568972260488415e-08	1.268828178030436e-07	-2.784296261751477e-07
0.01	0.0003425437040827214	0.1276209789783991	0.9343501661792121	0.1938994180642993	-0.2156860999133634	-0.237740360027895	-0.2906888581362516	0.2316786636026979	0.2316786636026726	0.1056383364209171	0.162078987613212	0.08948735603319803	0.07935844876204866	-0.01716171370932226	-0.01724853517610955	-0.008351009404185651	0.09519202187276142	0.001041506490192556	0.01857743087343374	-0.06168646784958376	0.09955814012721144	0.0995581401272127	-0.02836378035899737	0.004738829069022214	0.02852325169291243	0.009709318105892374	0.1076065380775894	-0.05226847169774907	0.001159443777925848	-0.245187721119875	0.1280870675578164	-0.06780260869948548	-0.02639700230601973	-29.52145885066483	-4.31473299900557	-26.28996112902229	0.1446098485517082	-1.192649695786543	-611.1976369740937	51.47600472060104	-1.631139841390481	-1.701664912037405	-0.8176794489176904	9.297368070452643	0.1139491297304021	1.840880530219307	-6.127530086427881	9.76866627481899	9.768666274819147	-2.805496460707578	0.4373450138752081	2.795925290654371	0.9664828593285734	4.78208514219231e-08	6.767446390121859e-09	-3.414927916531171e-07	2.870138671343307e-07	3.181516082674964e-08	2.507740354893455e-08	-3.40114846204847e-07
0.02	8.772282871753832e-05	0.1273639875118524	0.9342255425765056	0.195315993072271	-0.2156711937981863	-0.2374634645652435	-0.2916060095820924	0.2331608064161227	0.2331608064161213	0.1052175465652064	0.1621492438055065	0.08991154747488758	0.07950214833213225	-0.03369825511401364	-0.03408032080115695	-0.01654825261496689	0.187670766150006	0.00191105048159425	0.0367306452211676	-0.1214179984370473	0.1964213094150514	0.1964213094150536	-0.05560734479651678	0.009278993422515966	0.05616870549486318	0.01895311488696481	0.1031512274123007	-0.06481318797135885	0.001583576780725565	-0.2401438253738034	0.1180561814786636	-0.05493988353331083	-0.02258814488296796	-29.53896645505367	-6.765427683380283	-20.82746337915761	-1.075004745332121	-0.2724769918196903	-611.3604623426845	62.26850807768315	-1.729941353854931	-1.667043341004552	-0.8315023750681118	9.284551022044022	0.04156306290031464	1.785414070166419	-5.762145866486327	9.656366778682491	9.656366778682518	-2.618087205914035	0.4972925140745864	2.745675453824487	0.8634493819054053	5.914620633961925e-08	-3.123780272371605e-09	-4.040319444173424e-07	3.38885236450149e-07	4.794059904861513e-08	-7.672801070517452e-08	-4.018000662345462e-07
0.03	-0.0003300672176615815	0.126940896542441	0.9340194100693396	0.1976442225525646	-0.2156488998612001	-0.237008082454425	-0.2931091529254782	0.2355979101965496	0.2355979101965572	0.1045309503530625	0.1622647692115596	0.09060759529254793	0.079735382778601	-0.04978921606241838	-0.05045436042243678	-0.02467600952881709	0.2775207061029827	0.002496277905956722	0.05424665119018408	-0.1787731554169679	0.2905151273297542	0.2905151273297542	-0.08145967648907844	0.01380230937382253	0.08287878377669228	0.02758606980830953	0.09750500043067228	-0.06119575136517988	0.001866979835905847	-0.2344889076178183	0.1109093216391594	-0.05417613181609563	-0.01787150860071613	-29.5672313720494	-9.025624079857991	-20.79479448310463	-1.190685466590674	0.699959861205565	-611.8377094984584	61.31038926319014	-1.53808914226488	-1.610047719621323	-0.8030922131173287	8.767053502875807	0.05929073383039252	1.719892218171964	-5.656573390999944	9.213229521658945	9.213229521658743	-2.531002202560172	0.4263500095571309	2.609367814132273	0.8470402449142728	5.613785483543837e-08	-1.507299341119225e-08	-3.659980875378755e-07	2.927216667195546e-07	5.460698636469734e-08	-1.857390177316833e-07	-3.493049456962904e-07
0.04	-0.0009066500089009669	0.1263565724874319	0.9337320640203195	0.2008573190365814	-0.2156222960196472	-0.2363805006123316	-0.2951727223941136	0.2389614202008774	0.2389614202008745	0.1035933916136379	0.1624248275519114	0.09156588265278247	0.08005171111381613	-0.06545680408811697	-0.06632693792070418	-0.03279096098580638	0.3646441668940305	0.002773031395377852	0.07117059147531013	-0.2335032234871507	0.3817025541962423	0.3817025541962412	-0.1057998502469573	0.0181855802810587	0.1086166140093296	0.03557189263626645	0.09185877344897354	-0.05757831475901605	0.002150382891091609	-0.2288339898618964	0.1037624617996204	-0.05341238009890773	-0.01315487231849097	-29.60506097841684	-11.21367214976862	-20.76458356445952	-1.288737193810736	1.686740651144613	-611.1667202178598	60.10905293883033	-1.645266769314045	-1.566750916401713	-0.8289412836959501	8.739255189658216	-0.02013172408794377	1.667000933388318	-5.237128084538983	9.075088569039497	9.075088569039711	-2.315655618977519	0.4692835052604631	2.551225843986516	0.734022963227987	5.283396299266209e-08	-2.7064639260865e-08	-3.258905603564767e-07	2.445367580395498e-07	6.107834170334074e-08	-2.948985936813345e-07	-2.944555913318911e-07
0.05	-0.001638277239424076	0.1256161690045301	0.9333633574003614	0.2049289884564632	-0.2155940717169228	-0.2355866912776228	-0.2977707149560855	0.2432231467585772	0.2432231467585781	0.1024189569896418	0.1626278087127728	0.09277735460242428	0.08044537852004463	-0.08079955437184157	-0.08165464625667329	-0.0409669091039775	0.4492663700895791	0.00288654377056896	0.08749290199203852	-0.2857324740995102	0.4702113636595526	0.470211363659552	-0.1289867721984149	0.02233735943213892	0.1335802145149829	0.04315775847377571	0.08729672901092519	-0.05418495042855719	0.002319905441605856	-0.2262642754712973	0.1009419244049007	-0.05323538022227216	-0.009278166735274672	-29.6511113157667	-12.0453479887606	-20.83599562697905	-1.274310734901685	1.577811507193099	-610.5832929466281	58.90191489636516	-1.468407954542163	-1.500901662816561	-0.8144633524642223	8.260203213167616	0.02930465100423231	1.600138835151619	-5.161401329154375	8.674057542166514	8.674057542166535	-2.305190236545338	0.3771784440770492	2.454295798210197	0.7702728297762332	4.217443353856178e-08	-3.974998563097596e-08	-2.443149558099076e-07	1.373738069605137e-07	6.334307093593317e-08	-3.94519083861594e-07	-1.822700863536173e-07
0.06	-0.002521257732101797	0.1247254642641455	0.9329123829439038	0.2098341799740405	-0.2155642699039089	-0.234632600292875	-0.3008801155800936	0.2483570174923423	0.2483570174923397	0.1010156571953997	0.1628701183299734	0.09423553628599735	0.08091478547180078	-0.09572745652121772	-0.09638718941725662	-0.04924452828569652	0.5313485864317248	0.003088533453043092	0.1032269214822289	-0.3357848358947262	0.5561313894104487	0.5561313894104476	-0.1515728842824852	0.02605127154502147	0.1579585607948564	0.05071980174183694	0.08273468457284359	-0.05079158609814639	0.002489427992182398	-0.223694561080725	0.09812138701015068	-0.05305838034571071	-0.005401461152065566	-29.70360952851958	-12.81215413303444	-20.91026764543272	-1.243187719788048	1.473846099669664	-608.971180914334	57.48253970364351	-1.562297142444705	-1.447717881324209	-0.849275496405551	8.231257818977593	-0.00243626263133257	1.549342728080713	-4.80175032111052	8.557331826556572	8.557331826556613	-2.195493645500113	0.3817100976208834	2.434174998830926	0.729258449338513	3.120519302714257e-08	-5.246454044405273e-08	-1.609933269532262e-07	2.772756988572901e-08	6.543067906932348e-08	-4.937379283252475e-07	-6.767042766528565e-08
